<svg xmlns="http://www.w3.org/2000/svg" viewBox="0 0 512 512">
  <path fill="#073f5a" d="M256 25c-82 0-103 29-103 88v22c-11 4-18 9-18 16v24c0 4 3 6 7 5l14-5v226c0 57 25 84 100 86 75-2 100-29 100-86V175l14 5c4 1 7-1 7-5v-24c0-7-7-12-18-16v-22C359 54 338 25 256 25Z"/>
  <path fill="#3aa3d9" d="M256 39c-72 0-91 24-91 76v34c-16 4-28 10-28 18v14c0 3 2 4 5 3l23-9v223c0 48 20 72 91 74 71-2 91-26 91-74V175l23 9c3 1 5 0 5-3v-14c0-8-12-14-28-18v-34c0-52-19-76-91-76Z"/>
  <path fill="#053d56" d="M192 162c43-13 85-18 128-5l-10 70c-36-14-72-18-108 0l-10-65Z"/>
  <path fill="#053d56" d="M187 329c44 14 91 16 138-1l2 61c-49 26-95 27-142 0l2-60Z"/>
  <path fill="#053d56" opacity=".72" d="M169 175l10 53v100l-18 58V184l8-9Z"/>
  <path fill="#053d56" opacity=".72" d="M343 175l-10 53v100l18 58V184l-8-9Z"/>
  <path fill="#134f68" d="M188 371c44 26 90 26 136 0l3 18c-49 27-95 27-142 0l3-18Z"/>
  <path fill="#64bee9" d="M190 279c44 10 88 10 132 0v46c-41 19-85 19-132 0v-46Z"/>
  <path fill="#64bee9" d="M178 146c53-20 106-26 156-7l-13 18c-42-14-86-10-130 5l-13-16Z"/>
  <path fill="#b7d6f5" d="M176 62c17-11 39-13 50-6 4 3 3 7-1 9l-36 14c-9 4-17-8-13-17Z"/>
  <path fill="#d1e5ff" opacity=".9" d="M178 64c8-6 17-9 28-10-10 8-19 16-28 25-5-3-6-10 0-15Z"/>
  <path fill="#b7d6f5" d="M336 62c-17-11-39-13-50-6-4 3-3 7 1 9l36 14c9 4 17-8 13-17Z"/>
  <path fill="#d1e5ff" opacity=".9" d="M334 64c-8-6-17-9-28-10 10 8 19 16 28 25 5-3 6-10 0-15Z"/>
  <path fill="#b7d6f5" d="M176 450c17 11 39 13 50 6 4-3 3-7-1-9l-36-14c-9-4-17 8-13 17Z"/>
  <path fill="#d1e5ff" opacity=".9" d="M178 448c8 6 17 9 28 10-10-8-19-16-28-25-5 3-6 10 0 15Z"/>
  <path fill="#b7d6f5" d="M336 450c-17 11-39 13-50 6-4-3-3-7 1-9l36-14c9-4 17 8 13 17Z"/>
  <path fill="#d1e5ff" opacity=".9" d="M334 448c-8 6-17 9-28 10 10-8 19-16 28-25 5 3 6 10 0 15Z"/>
  <path fill="#0a5977" d="M160 275h18v5h-18z"/>
  <path fill="#0a5977" d="M334 275h18v5h-18z"/>
  <path fill="#197aa5" opacity=".35" d="M256 39c-72 0-91 24-91 76v34c-10 3-19 6-24 10 54-19 132-32 206-10v-34c0-52-19-76-91-76Z"/>
</svg>
